<svg id="Ebene_1" data-name="Ebene 1" xmlns="http://www.w3.org/2000/svg" viewBox="0 0 200 200"><defs><style>.cls-1{fill:none;stroke:#1d1d1b;stroke-miterlimit:10;stroke-width:4px;}</style></defs><title>web icons</title><polygon class="cls-1" points="40 180 40 20 120 20 160 60 160 180 40 180"/><polyline class="cls-1" points="160 60 120 60 120 20"/><line class="cls-1" x1="70" y1="85" x2="80" y2="95"/><line class="cls-1" x1="80" y1="85" x2="70" y2="95"/><path class="cls-1" d="M100,85s-10,0-10,8.75,10,8.75,10,17.5S90,120,90,120"/><path class="cls-1" d="M100,155s-10,0-10-8.75,10-8.75,10-17.5S90,120,90,120"/><path class="cls-1" d="M120,155s10,0,10-8.75-10-8.75-10-17.5S130,120,130,120"/><path class="cls-1" d="M120,85s10,0,10,8.75-10,8.75-10,17.5S130,120,130,120"/></svg>