<svg id="Ebene_1" data-name="Ebene 1" xmlns="http://www.w3.org/2000/svg" viewBox="0 0 200 200"><defs><style>.cls-1{fill:none;stroke:#1d1d1b;stroke-miterlimit:10;stroke-width:4px;}</style></defs><title>web icons</title><polygon class="cls-1" points="40 180 40 20 120 20 160 60 160 180 40 180"/><polyline class="cls-1" points="160 60 120 60 120 20"/><line class="cls-1" x1="75" y1="160" x2="115" y2="160"/><path class="cls-1" d="M95,160c16.57,0,30-17.91,30-40H65C65,142.09,78.43,160,95,160Z"/><path class="cls-1" d="M125,130c-.32,0-.64,0-1,.05a45.22,45.22,0,0,1-6.6,16.48A10,10,0,1,0,125,130Z"/><path class="cls-1" d="M85,80s10,0,10,7.5S85,95,85,95s-10,0-10,7.5S85,110,85,110"/><path class="cls-1" d="M105,80s10,0,10,7.5S105,95,105,95s-10,0-10,7.5,10,7.5,10,7.5"/></svg>