<svg id="Ebene_1" data-name="Ebene 1" xmlns="http://www.w3.org/2000/svg" viewBox="0 0 200 200"><defs><style>.cls-1{fill:none;stroke:#1d1d1b;stroke-miterlimit:10;stroke-width:4px;}.cls-2{fill:#1d1d1b;}</style></defs><title>web icons</title><polygon class="cls-1" points="40 180 40 20 120 20 160 60 160 180 40 180"/><polyline class="cls-1" points="160 60 120 60 120 20"/><path class="cls-1" d="M80,85s-10,0-10,8.75,10,8.75,10,17.5S70,120,70,120"/><path class="cls-1" d="M80,155s-10,0-10-8.75,10-8.75,10-17.5S70,120,70,120"/><path class="cls-1" d="M120,155s10,0,10-8.75-10-8.75-10-17.5S130,120,130,120"/><path class="cls-1" d="M120,85s10,0,10,8.75-10,8.75-10,17.5S130,120,130,120"/><rect class="cls-2" x="90" y="105" width="20" height="20" rx="10" ry="10"/><polygon class="cls-2" points="90 135 110 135 100 155 90 155 90 135"/></svg>