<svg id="Ebene_1" data-name="Ebene 1" xmlns="http://www.w3.org/2000/svg" viewBox="0 0 200 200"><defs><style>.cls-1{fill:none;stroke:#1d1d1b;stroke-miterlimit:10;stroke-width:4px;}</style></defs><title>web icons</title><polygon class="cls-1" points="40 180 40 20 120 20 160 60 160 180 40 180"/><polyline class="cls-1" points="160 60 120 60 120 20"/><path class="cls-1" d="M120,90H80a20,20,0,0,0-20,20h0a20,20,0,0,0,20,20l20,20V130h20a20,20,0,0,0,20-20h0A20,20,0,0,0,120,90Z"/><polyline class="cls-1" points="70 100 80 120 90 100 130 100"/><line class="cls-1" x1="100" y1="120" x2="100" y2="100"/><line class="cls-1" x1="120" y1="120" x2="120" y2="100"/></svg>